<svg width="100" height="100" viewBox="0 0 100 100" fill="none" xmlns="http://www.w3.org/2000/svg">
<g id="Logo">
<path id="Ellipse 1" d="M98.4222 50C98.4222 76.7869 76.7243 98.5 49.9611 98.5C23.1979 98.5 1.5 76.7869 1.5 50C1.5 23.2131 23.1979 1.5 49.9611 1.5C76.7243 1.5 98.4222 23.2131 98.4222 50Z" stroke="url(#paint0_linear_7_44)" stroke-width="3"/>
<mask id="mask0_7_44" style="mask-type:alpha" maskUnits="userSpaceOnUse" x="18" y="17" width="61" height="66">
<g id="Group 1">
<g id="Paper">
<path id="Line 1 (Stroke)" fill-rule="evenodd" clip-rule="evenodd" d="M46.5086 82.6776C45.7101 83.1343 44.6929 82.8569 44.2368 82.058L18.964 37.7962C18.5078 36.9973 18.7854 35.9794 19.584 35.5228C20.3826 35.0661 21.3997 35.3435 21.8559 36.1424L47.1287 80.4042C47.5848 81.2031 47.3072 82.2209 46.5086 82.6776Z" fill="black"/>
<path id="Line 3 (Stroke)" fill-rule="evenodd" clip-rule="evenodd" d="M78.1194 69.2895C77.3208 69.7462 76.3037 69.4688 75.8475 68.6699L55.912 33.7555C55.4558 32.9567 55.7334 31.9388 56.532 31.4821C57.3306 31.0255 58.3477 31.3029 58.8039 32.1017L78.7394 67.0161C79.1956 67.815 78.918 68.8328 78.1194 69.2895Z" fill="black"/>
<path id="Line 3 (Stroke)_2" fill-rule="evenodd" clip-rule="evenodd" d="M55.2441 29.2136C54.4455 29.6703 53.4283 29.3929 52.9722 28.594L50.6115 24.4596C50.1554 23.6608 50.433 22.6429 51.2316 22.1862C52.0301 21.7296 53.0473 22.007 53.5034 22.8058L55.8641 26.9402C56.3202 27.7391 56.0426 28.7569 55.2441 29.2136Z" fill="black"/>
<path id="Line 2 (Stroke)" fill-rule="evenodd" clip-rule="evenodd" d="M78.7887 67.2724C79.1456 68.1207 78.7474 69.0982 77.8992 69.4555L46.3067 82.768C45.4586 83.1254 44.4817 82.7274 44.1247 81.8791C43.7678 81.0307 44.166 80.0533 45.0142 79.6959L76.6067 66.3834C77.4549 66.026 78.4318 66.424 78.7887 67.2724Z" fill="black"/>
<path id="Line 4 (Stroke)" fill-rule="evenodd" clip-rule="evenodd" d="M53.548 22.92C53.9049 23.7683 53.5067 24.7458 52.6586 25.1032L21.0638 38.4166C20.2156 38.774 19.2387 38.376 18.8818 37.5277C18.5249 36.6793 18.9231 35.7019 19.7712 35.3445L51.3661 22.0311C52.2142 21.6737 53.1911 22.0717 53.548 22.92Z" fill="black"/>
</g>
<g id="Pen">
<path id="Line 5 (Stroke)" fill-rule="evenodd" clip-rule="evenodd" d="M59.5773 18.6925C60.4 19.1041 60.7336 20.1049 60.3224 20.9279L48.4594 44.6724C48.0483 45.4953 47.0481 45.8287 46.2254 45.417C45.4028 45.0054 45.0692 44.0046 45.4803 43.1817L57.3433 19.4371C57.7545 18.6142 58.7547 18.2808 59.5773 18.6925Z" fill="black"/>
<path id="Line 6 (Stroke)" fill-rule="evenodd" clip-rule="evenodd" d="M63.1846 19.8056C64.0073 20.2172 64.3409 21.2181 63.9297 22.041L51.7034 46.5128C51.2922 47.3357 50.292 47.6691 49.4694 47.2574C48.6467 46.8458 48.3131 45.845 48.7242 45.0221L60.9506 20.5503C61.3618 19.7273 62.362 19.394 63.1846 19.8056Z" fill="black"/>
<path id="Line 7 (Stroke)" fill-rule="evenodd" clip-rule="evenodd" d="M63.3322 22.668C62.5557 23.1614 61.5267 22.9317 61.0339 22.1549L59.5214 19.7712C59.0285 18.9944 59.2584 17.9647 60.0349 17.4712C60.8113 16.9778 61.8403 17.2075 62.3332 17.9843L63.8456 20.368C64.3385 21.1448 64.1086 22.1745 63.3322 22.668Z" fill="black"/>
<path id="Line 8 (Stroke)" fill-rule="evenodd" clip-rule="evenodd" d="M62.2993 18.1138C62.7555 18.9131 62.4777 19.9313 61.6788 20.3881L59.7214 21.5072C58.9224 21.964 57.9049 21.6864 57.4487 20.8871C56.9924 20.0879 57.2702 19.0697 58.0692 18.6129L60.0266 17.4938C60.8255 17.037 61.843 17.3146 62.2993 18.1138Z" fill="black"/>
<path id="Line 9 (Stroke)" fill-rule="evenodd" clip-rule="evenodd" d="M47.8048 48.5771C46.8999 48.7417 46.033 48.1416 45.8686 47.2366L45.3286 44.2642C45.1642 43.3593 45.7645 42.4922 46.6694 42.3275C47.5743 42.1628 48.4412 42.763 48.6056 43.6679L49.1456 46.6403C49.31 47.5453 48.7097 48.4124 47.8048 48.5771Z" fill="black"/>
<path id="Line 10 (Stroke)" fill-rule="evenodd" clip-rule="evenodd" d="M51.7229 45.0124C52.126 45.8398 51.7822 46.8377 50.9551 47.2413L48.2935 48.54C47.4664 48.9436 46.4691 48.6001 46.066 47.7727C45.6629 46.9454 46.0067 45.9475 46.8338 45.5439L49.4954 44.2451C50.3225 43.8415 51.3198 44.1851 51.7229 45.0124Z" fill="black"/>
</g>
</g>
</mask>
<g mask="url(#mask0_7_44)">
<path id="Rectangle 2" d="M-14.6684 15H121.892V83.3333H-14.6684V15Z" fill="url(#paint1_linear_7_44)" fill-opacity="0.8"/>
</g>
</g>
<defs>
<linearGradient id="paint0_linear_7_44" x1="49.9611" y1="0" x2="49.9611" y2="100" gradientUnits="userSpaceOnUse">
<stop stop-color="#FFDBAB"/>
<stop offset="1" stop-color="#8E5F79"/>
</linearGradient>
<linearGradient id="paint1_linear_7_44" x1="53.2918" y1="15" x2="53.2918" y2="83.3333" gradientUnits="userSpaceOnUse">
<stop stop-color="#FFDBAB"/>
<stop offset="1" stop-color="#8E5F79"/>
</linearGradient>
</defs>
</svg>
